<svg width="25" height="25" viewBox="0 0 25 25" fill="none" xmlns="http://www.w3.org/2000/svg">
<path d="M14.5833 10.7812V9.53123C15.1562 9.28817 15.7422 9.10588 16.3411 8.98435C16.9401 8.86283 17.5694 8.80206 18.2292 8.80206C18.6806 8.80206 19.1233 8.83679 19.5573 8.90623C19.9913 8.97567 20.4167 9.06248 20.8333 9.16665V10.3125C20.4167 10.1562 19.9957 10.039 19.5703 9.96092C19.145 9.88279 18.6979 9.84373 18.2292 9.84373C17.5694 9.84373 16.9358 9.92619 16.3281 10.0911C15.7205 10.2561 15.1389 10.4861 14.5833 10.7812ZM14.5833 16.5104V15.2344C15.1562 14.9913 15.7422 14.8133 16.3411 14.7005C16.9401 14.5877 17.5694 14.5312 18.2292 14.5312C18.6806 14.5312 19.1233 14.566 19.5573 14.6354C19.9913 14.7048 20.4167 14.7916 20.8333 14.8958V16.0416C20.4167 15.8854 19.9957 15.7682 19.5703 15.6901C19.145 15.612 18.6979 15.5729 18.2292 15.5729C17.5694 15.5729 16.9358 15.651 16.3281 15.8073C15.7205 15.9635 15.1389 16.1979 14.5833 16.5104ZM14.5833 13.6458V12.3958C15.1562 12.1528 15.7422 11.9705 16.3411 11.8489C16.9401 11.7274 17.5694 11.6666 18.2292 11.6666C18.6806 11.6666 19.1233 11.7014 19.5573 11.7708C19.9913 11.8403 20.4167 11.9271 20.8333 12.0312V13.1771C20.4167 13.0208 19.9957 12.9036 19.5703 12.8255C19.145 12.7474 18.6979 12.7083 18.2292 12.7083C17.5694 12.7083 16.9358 12.7908 16.3281 12.9557C15.7205 13.1206 15.1389 13.3507 14.5833 13.6458ZM6.45833 17.9166C7.39583 17.9166 8.30295 18.0252 9.17968 18.2422C10.0564 18.4592 10.9201 18.7847 11.7708 19.2187V8.09894C10.9896 7.5781 10.1432 7.17446 9.23177 6.888C8.32031 6.60154 7.39583 6.45831 6.45833 6.45831C5.79861 6.45831 5.15191 6.54078 4.51822 6.70571C3.88454 6.87064 3.24652 7.07463 2.60416 7.31769V18.6198C3.14236 18.3767 3.75434 18.1988 4.4401 18.0859C5.12586 17.9731 5.79861 17.9166 6.45833 17.9166ZM13.3333 19.2187C14.2014 18.7847 15.0521 18.4592 15.8854 18.2422C16.7187 18.0252 17.6042 17.9166 18.5417 17.9166C19.2014 17.9166 19.8828 17.9687 20.5859 18.0729C21.2891 18.1771 21.8924 18.316 22.3958 18.4896V7.31769C21.8056 7.00519 21.1806 6.78383 20.5208 6.65363C19.8611 6.52342 19.2014 6.45831 18.5417 6.45831C17.6042 6.45831 16.697 6.60154 15.8203 6.888C14.9436 7.17446 14.1146 7.5781 13.3333 8.09894V19.2187ZM12.6042 22.2656C11.7014 21.6232 10.7335 21.0981 9.70052 20.6901C8.66753 20.2821 7.5868 20.0781 6.45833 20.0781C5.86805 20.0781 5.28645 20.1606 4.71354 20.3255C4.14062 20.4904 3.5677 20.6684 2.99479 20.8594C2.42187 21.1545 1.85329 21.1371 1.28906 20.8073C0.724821 20.4774 0.442703 19.9739 0.442703 19.2969V7.2656C0.442703 6.83158 0.538189 6.42793 0.729162 6.05467C0.920134 5.6814 1.20659 5.39929 1.58854 5.20831C2.35243 4.86109 3.13802 4.61804 3.94531 4.47915C4.7526 4.34026 5.57291 4.27081 6.40625 4.27081C7.51736 4.27081 8.59375 4.42272 9.63541 4.72654C10.6771 5.03036 11.6493 5.50345 12.5521 6.14581C13.4375 5.52081 14.3924 5.05206 15.4167 4.73956C16.441 4.42706 17.5 4.27081 18.5937 4.27081C19.4271 4.27081 20.2431 4.34894 21.0417 4.50519C21.8403 4.66144 22.6215 4.89581 23.3854 5.20831C23.7674 5.39929 24.0582 5.6814 24.2578 6.05467C24.4575 6.42793 24.5573 6.83158 24.5573 7.2656V19.5833C24.5573 20.2257 24.2708 20.6857 23.6979 20.9635C23.125 21.2413 22.5521 21.2066 21.9792 20.8594C21.4236 20.651 20.8594 20.4687 20.2865 20.3125C19.7135 20.1562 19.1319 20.0781 18.5417 20.0781C17.4479 20.0781 16.4062 20.2908 15.4167 20.7161C14.4271 21.1415 13.4896 21.658 12.6042 22.2656Z" fill="url(#paint0_linear_11_40)"/>
<defs>
<linearGradient id="paint0_linear_11_40" x1="12.5" y1="4.27081" x2="12.5" y2="22.2656" gradientUnits="userSpaceOnUse">
<stop stop-color="#3C77CF"/>
<stop offset="1" stop-color="#83B5FF"/>
</linearGradient>
</defs>
</svg>
