<svg width="338" height="50" viewBox="0 0 338 50" fill="none" xmlns="http://www.w3.org/2000/svg">
<path d="M10.872 5.736C15.256 5.736 18.664 6.648 21.096 8.472C23.528 10.296 24.744 13 24.744 16.584C24.744 20.328 23.544 23.16 21.144 25.08C18.776 26.968 15.592 27.912 11.592 27.912H7.992V39H0.12V5.736H10.872ZM10.92 22.248C12.776 22.248 14.184 21.816 15.144 20.952C16.136 20.056 16.632 18.6 16.632 16.584C16.632 13.096 14.68 11.352 10.776 11.352H7.992V22.248H10.92ZM49.5281 25.752C49.5281 26.808 49.4801 27.72 49.3841 28.488H33.5921C33.8481 30.632 34.4561 32.136 35.4161 33C36.3761 33.864 37.7041 34.296 39.4001 34.296C40.4241 34.296 41.4161 34.12 42.3761 33.768C43.3361 33.384 44.3761 32.808 45.4961 32.04L48.6161 36.264C45.6401 38.632 42.3281 39.816 38.6801 39.816C34.5521 39.816 31.3841 38.6 29.1761 36.168C26.9681 33.736 25.8641 30.472 25.8641 26.376C25.8641 23.784 26.3281 21.464 27.2561 19.416C28.1841 17.336 29.5441 15.704 31.3361 14.52C33.1281 13.304 35.2721 12.696 37.7681 12.696C41.4481 12.696 44.3281 13.848 46.4081 16.152C48.4881 18.456 49.5281 21.656 49.5281 25.752ZM42.0881 23.592C42.0241 19.688 40.6481 17.736 37.9601 17.736C36.6481 17.736 35.6241 18.216 34.8881 19.176C34.1841 20.136 33.7521 21.72 33.5921 23.928H42.0881V23.592ZM76.6365 3.384V39H69.9165L69.5325 36.024C67.7405 38.552 65.3245 39.816 62.2845 39.816C59.1165 39.816 56.7005 38.6 55.0365 36.168C53.4045 33.736 52.5885 30.408 52.5885 26.184C52.5885 23.592 53.0205 21.272 53.8845 19.224C54.7485 17.176 55.9645 15.576 57.5325 14.424C59.1325 13.272 60.9565 12.696 63.0045 12.696C65.4365 12.696 67.4525 13.496 69.0525 15.096V2.568L76.6365 3.384ZM64.6365 34.248C66.3965 34.248 67.8685 33.288 69.0525 31.368V20.376C68.4445 19.64 67.8205 19.096 67.1805 18.744C66.5725 18.392 65.8685 18.216 65.0685 18.216C63.6605 18.216 62.5405 18.872 61.7085 20.184C60.8765 21.496 60.4605 23.512 60.4605 26.232C60.4605 29.208 60.8125 31.288 61.5165 32.472C62.2525 33.656 63.2925 34.248 64.6365 34.248ZM96.3938 12.792C97.3218 12.792 98.1698 12.904 98.9378 13.128L97.7378 20.472C96.7778 20.248 96.0098 20.136 95.4338 20.136C93.9298 20.136 92.7778 20.664 91.9778 21.72C91.2098 22.744 90.6018 24.296 90.1538 26.376V39H82.5698V13.512H89.1938L89.8178 18.456C90.3938 16.696 91.2578 15.32 92.4098 14.328C93.5938 13.304 94.9218 12.792 96.3938 12.792ZM111.422 12.696C115.326 12.696 118.382 13.896 120.59 16.296C122.798 18.664 123.902 21.992 123.902 26.28C123.902 29 123.39 31.384 122.366 33.432C121.374 35.448 119.934 37.016 118.046 38.136C116.19 39.256 113.982 39.816 111.422 39.816C107.55 39.816 104.494 38.632 102.254 36.264C100.046 33.864 98.9423 30.52 98.9423 26.232C98.9423 23.512 99.4383 21.144 100.43 19.128C101.454 17.08 102.894 15.496 104.75 14.376C106.638 13.256 108.862 12.696 111.422 12.696ZM111.422 18.264C109.886 18.264 108.734 18.92 107.966 20.232C107.198 21.512 106.814 23.512 106.814 26.232C106.814 29.016 107.182 31.048 107.918 32.328C108.686 33.608 109.854 34.248 111.422 34.248C112.958 34.248 114.11 33.608 114.878 32.328C115.646 31.016 116.03 29 116.03 26.28C116.03 23.496 115.646 21.464 114.878 20.184C114.142 18.904 112.99 18.264 111.422 18.264ZM157.804 39V24.744H147.82V39H139.948V5.736H147.82V18.6H157.804V5.736H165.676V39H157.804ZM193.997 25.752C193.997 26.808 193.949 27.72 193.853 28.488H178.061C178.317 30.632 178.925 32.136 179.885 33C180.845 33.864 182.173 34.296 183.869 34.296C184.893 34.296 185.885 34.12 186.845 33.768C187.805 33.384 188.845 32.808 189.965 32.04L193.085 36.264C190.109 38.632 186.797 39.816 183.149 39.816C179.021 39.816 175.853 38.6 173.645 36.168C171.437 33.736 170.333 30.472 170.333 26.376C170.333 23.784 170.797 21.464 171.725 19.416C172.653 17.336 174.013 15.704 175.805 14.52C177.597 13.304 179.741 12.696 182.237 12.696C185.917 12.696 188.797 13.848 190.877 16.152C192.957 18.456 193.997 21.656 193.997 25.752ZM186.557 23.592C186.493 19.688 185.117 17.736 182.429 17.736C181.117 17.736 180.093 18.216 179.357 19.176C178.653 20.136 178.221 21.72 178.061 23.928H186.557V23.592ZM213.185 12.696C215.393 12.696 217.121 13.368 218.369 14.712C219.617 16.056 220.241 17.944 220.241 20.376V39H212.657V21.672C212.657 20.392 212.449 19.512 212.033 19.032C211.649 18.52 211.057 18.264 210.257 18.264C208.721 18.264 207.249 19.368 205.841 21.576V39H198.257V13.512H204.881L205.409 16.536C206.497 15.256 207.665 14.296 208.913 13.656C210.193 13.016 211.617 12.696 213.185 12.696ZM239.784 12.792C240.712 12.792 241.56 12.904 242.328 13.128L241.128 20.472C240.168 20.248 239.4 20.136 238.824 20.136C237.32 20.136 236.168 20.664 235.368 21.72C234.6 22.744 233.992 24.296 233.544 26.376V39H225.96V13.512H232.584L233.208 18.456C233.784 16.696 234.648 15.32 235.8 14.328C236.984 13.304 238.312 12.792 239.784 12.792ZM252.81 13.512V39H245.226V13.512H252.81ZM248.97 0.0719976C250.282 0.0719976 251.354 0.487998 252.186 1.32C253.05 2.12 253.482 3.144 253.482 4.392C253.482 5.64 253.05 6.68 252.186 7.512C251.354 8.312 250.282 8.712 248.97 8.712C247.658 8.712 246.586 8.312 245.754 7.512C244.922 6.68 244.506 5.64 244.506 4.392C244.506 3.144 244.922 2.12 245.754 1.32C246.586 0.487998 247.658 0.0719976 248.97 0.0719976ZM281.621 13.512V49.656L274.037 48.84V36.552C272.341 38.728 270.085 39.816 267.269 39.816C264.101 39.816 261.685 38.6 260.021 36.168C258.389 33.736 257.573 30.408 257.573 26.184C257.573 23.56 258.005 21.24 258.869 19.224C259.733 17.176 260.949 15.576 262.517 14.424C264.117 13.272 265.957 12.696 268.037 12.696C270.629 12.696 272.821 13.704 274.613 15.72L274.997 13.512H281.621ZM269.621 34.248C271.381 34.248 272.853 33.288 274.037 31.368V20.376C273.429 19.64 272.821 19.096 272.213 18.744C271.605 18.392 270.901 18.216 270.101 18.216C268.661 18.216 267.525 18.872 266.693 20.184C265.861 21.464 265.445 23.48 265.445 26.232C265.445 29.208 265.797 31.288 266.501 32.472C267.237 33.656 268.277 34.248 269.621 34.248ZM309.058 39H302.482L302.146 35.784C300.29 38.472 297.714 39.816 294.418 39.816C292.082 39.816 290.306 39.112 289.09 37.704C287.906 36.296 287.314 34.328 287.314 31.8V13.512H294.898V30.84C294.898 32.088 295.09 32.968 295.474 33.48C295.89 33.96 296.514 34.2 297.346 34.2C298.946 34.2 300.322 33.208 301.474 31.224V13.512H309.058V39ZM337.247 25.752C337.247 26.808 337.199 27.72 337.103 28.488H321.311C321.567 30.632 322.175 32.136 323.135 33C324.095 33.864 325.423 34.296 327.119 34.296C328.143 34.296 329.135 34.12 330.095 33.768C331.055 33.384 332.095 32.808 333.215 32.04L336.335 36.264C333.359 38.632 330.047 39.816 326.399 39.816C322.271 39.816 319.103 38.6 316.895 36.168C314.687 33.736 313.583 30.472 313.583 26.376C313.583 23.784 314.047 21.464 314.975 19.416C315.903 17.336 317.263 15.704 319.055 14.52C320.847 13.304 322.991 12.696 325.487 12.696C329.167 12.696 332.047 13.848 334.127 16.152C336.207 18.456 337.247 21.656 337.247 25.752ZM329.807 23.592C329.743 19.688 328.367 17.736 325.679 17.736C324.367 17.736 323.343 18.216 322.607 19.176C321.903 20.136 321.471 21.72 321.311 23.928H329.807V23.592Z" fill="url(#paint0_linear_3_19)"/>
<defs>
<linearGradient id="paint0_linear_3_19" x1="168" y1="-7" x2="168" y2="53" gradientUnits="userSpaceOnUse">
<stop stop-color="#3C77CF"/>
<stop offset="1" stop-color="#83B5FF"/>
</linearGradient>
</defs>
</svg>
